<?xml version="1.0" encoding="UTF-8"?>
<svg width="399px" height="78px" viewBox="0 0 399 78" version="1.1" xmlns="http://www.w3.org/2000/svg" xmlns:xlink="http://www.w3.org/1999/xlink">
    <!-- Generator: Sketch 55.2 (78181) - https://sketchapp.com -->
    <title>Todos logo</title>
    <desc>Created with Sketch.</desc>
    <g id="Page-1" stroke="none" stroke-width="1" fill="none" fill-rule="evenodd">
        <g id="Desktop" transform="translate(-118.000000, -90.000000)">
            <g id="Todos-logo" transform="translate(118.000000, 90.000000)">
                <path d="M143.136,76 C142.42933,76 141.828669,75.7526691 141.334,75.258 C140.839331,74.7633309 140.592,74.1626702 140.592,73.456 L140.592,15.05 L120.982,15.05 C120.27533,15.05 119.674669,14.8026691 119.18,14.308 C118.685331,13.8133309 118.438,13.1773372 118.438,12.4 L118.438,4.45 C118.438,3.67266278 118.667664,3.03666914 119.127,2.542 C119.586336,2.04733086 120.204663,1.8 120.982,1.8 L175.148,1.8 C175.925337,1.8 176.561331,2.04733086 177.056,2.542 C177.550669,3.03666914 177.798,3.67266278 177.798,4.45 L177.798,12.4 C177.798,13.1773372 177.550669,13.8133309 177.056,14.308 C176.561331,14.8026691 175.925337,15.05 175.148,15.05 L155.644,15.05 L155.644,73.456 C155.644,74.1626702 155.414336,74.7633309 154.955,75.258 C154.495664,75.7526691 153.877337,76 153.1,76 L143.136,76 Z M198.034486,77.06 C189.695778,77.06 183.265175,74.9400212 178.742486,70.7 C174.219797,66.4599788 171.781821,60.5947041 171.428486,53.104 L171.322486,48.44 L171.428486,43.776 C171.781821,36.3559629 174.25513,30.5083547 178.848486,26.233 C183.441842,21.9576453 189.837112,19.82 198.034486,19.82 C206.161193,19.82 212.52113,21.9576453 217.114486,26.233 C221.707842,30.5083547 224.181151,36.3559629 224.534486,43.776 C224.605153,44.6240042 224.640486,46.1786554 224.640486,48.44 C224.640486,50.7013446 224.605153,52.2559958 224.534486,53.104 C224.181151,60.5947041 221.743175,66.4599788 217.220486,70.7 C212.697797,74.9400212 206.302527,77.06 198.034486,77.06 Z M198.034486,66.354 C201.779838,66.354 204.659476,65.1880117 206.673486,62.856 C208.687496,60.5239883 209.765152,57.0966893 209.906486,52.574 C209.977153,51.8673298 210.012486,50.4893436 210.012486,48.44 C210.012486,46.3906564 209.977153,45.0126702 209.906486,44.306 C209.765152,39.7833107 208.66983,36.3383452 206.620486,33.971 C204.571142,31.6036548 201.709171,30.42 198.034486,30.42 C194.289134,30.42 191.39183,31.6036548 189.342486,33.971 C187.293142,36.3383452 186.19782,39.7833107 186.056486,44.306 L185.950486,48.44 L186.056486,52.574 C186.19782,57.0966893 187.293142,60.5239883 189.342486,62.856 C191.39183,65.1880117 194.289134,66.354 198.034486,66.354 Z M252.932972,77.06 C245.795603,77.06 240.318991,74.7810228 236.502972,70.223 C232.686953,65.6649772 230.602307,59.5700382 230.248972,51.938 L230.142972,48.44 L230.248972,44.942 C230.53164,37.4512959 232.598619,31.3916898 236.449972,26.763 C240.301325,22.1343102 245.795603,19.82 252.932972,19.82 C259.717006,19.82 265.122952,22.1519767 269.150972,26.816 L269.150972,3.284 C269.150972,2.50666278 269.398303,1.88833563 269.892972,1.429 C270.387641,0.96966437 270.988302,0.74 271.694972,0.74 L280.916972,0.74 C281.694309,0.74 282.312636,0.96966437 282.771972,1.429 C283.231308,1.88833563 283.460972,2.50666278 283.460972,3.284 L283.460972,73.456 C283.460972,74.1626702 283.231308,74.7633309 282.771972,75.258 C282.312636,75.7526691 281.694309,76 280.916972,76 L272.330972,76 C271.624302,76 271.023641,75.7526691 270.528972,75.258 C270.034303,74.7633309 269.786972,74.1626702 269.786972,73.456 L269.786972,69.534 C265.900286,74.5513584 260.282342,77.06 252.932972,77.06 Z M256.960972,65.612 C260.988992,65.612 263.974629,64.3223462 265.917972,61.743 C267.861315,59.1636538 268.938971,55.9660191 269.150972,52.15 C269.221639,51.3019958 269.256972,49.9593425 269.256972,48.122 C269.256972,46.2139905 269.221639,44.8360042 269.150972,43.988 C269.009638,40.454649 267.914316,37.4513457 265.864972,34.978 C263.815628,32.5046543 260.847658,31.268 256.960972,31.268 C249.399601,31.268 245.371641,35.9319534 244.876972,45.26 L244.770972,48.44 L244.876972,51.62 C245.371641,60.9480466 249.399601,65.612 256.960972,65.612 Z M318.113458,77.06 C309.77475,77.06 303.344147,74.9400212 298.821458,70.7 C294.298769,66.4599788 291.860793,60.5947041 291.507458,53.104 L291.401458,48.44 L291.507458,43.776 C291.860793,36.3559629 294.334102,30.5083547 298.927458,26.233 C303.520814,21.9576453 309.916084,19.82 318.113458,19.82 C326.240165,19.82 332.600102,21.9576453 337.193458,26.233 C341.786814,30.5083547 344.260123,36.3559629 344.613458,43.776 C344.684125,44.6240042 344.719458,46.1786554 344.719458,48.44 C344.719458,50.7013446 344.684125,52.2559958 344.613458,53.104 C344.260123,60.5947041 341.822147,66.4599788 337.299458,70.7 C332.776769,74.9400212 326.381499,77.06 318.113458,77.06 Z M318.113458,66.354 C321.85881,66.354 324.738448,65.1880117 326.752458,62.856 C328.766468,60.5239883 329.844124,57.0966893 329.985458,52.574 C330.056125,51.8673298 330.091458,50.4893436 330.091458,48.44 C330.091458,46.3906564 330.056125,45.0126702 329.985458,44.306 C329.844124,39.7833107 328.748802,36.3383452 326.699458,33.971 C324.650114,31.6036548 321.788143,30.42 318.113458,30.42 C314.368106,30.42 311.470802,31.6036548 309.421458,33.971 C307.372114,36.3383452 306.276792,39.7833107 306.135458,44.306 L306.029458,48.44 L306.135458,52.574 C306.276792,57.0966893 307.372114,60.5239883 309.421458,62.856 C311.470802,65.1880117 314.368106,66.354 318.113458,66.354 Z M373.541944,77.06 C368.17125,77.06 363.683962,76.2473415 360.079944,74.622 C356.475926,72.9966585 353.808286,71.1063441 352.076944,68.951 C350.345602,66.7956559 349.479944,64.9406744 349.479944,63.386 C349.479944,62.6793298 349.709608,62.1140021 350.168944,61.69 C350.62828,61.2659979 351.175941,61.054 351.811944,61.054 L360.503944,61.054 C361.06928,61.054 361.563942,61.3366638 361.987944,61.902 C362.341279,62.1846681 363.136271,62.8559947 364.372944,63.916 C365.609617,64.9760053 367.022936,65.8063303 368.612944,66.407 C370.202952,67.0076697 371.951934,67.308 373.859944,67.308 C376.686625,67.308 378.983269,66.7603388 380.749944,65.665 C382.51662,64.5696612 383.399944,62.9973436 383.399944,60.948 C383.399944,59.5346596 382.993615,58.3863377 382.180944,57.503 C381.368273,56.6196623 379.919621,55.8070037 377.834944,55.065 C375.750267,54.3229963 372.623298,53.4926713 368.453944,52.574 C362.447247,51.3019936 358.012958,49.3586797 355.150944,46.744 C352.28893,44.1293203 350.857944,40.6666882 350.857944,36.356 C350.857944,33.5293192 351.705936,30.8616792 353.401944,28.353 C355.097952,25.8443208 357.624261,23.7950079 360.980944,22.205 C364.337627,20.614992 368.347921,19.82 373.011944,19.82 C377.817301,19.82 381.95126,20.5796591 385.413944,22.099 C388.876628,23.6183409 391.508935,25.4379894 393.310944,27.558 C395.112953,29.6780106 396.013944,31.5506585 396.013944,33.176 C396.013944,33.8120032 395.78428,34.3596644 395.324944,34.819 C394.865608,35.2783356 394.317947,35.508 393.681944,35.508 L385.731944,35.508 C384.954607,35.508 384.353946,35.2253362 383.929944,34.66 C383.435275,34.3066649 382.640283,33.6530048 381.544944,32.699 C380.449605,31.7449952 379.230617,30.9853362 377.887944,30.42 C376.545271,29.8546638 374.919954,29.572 373.011944,29.572 C370.397264,29.572 368.383284,30.1373277 366.969944,31.268 C365.556604,32.3986723 364.849944,33.8826575 364.849944,35.72 C364.849944,36.9920064 365.185607,38.0519958 365.856944,38.9 C366.528281,39.7480042 367.8886,40.5429963 369.937944,41.285 C371.987288,42.0270037 375.061257,42.7866628 379.159944,43.564 C391.880008,46.0373457 398.239944,51.5846236 398.239944,60.206 C398.239944,65.2233584 396.066966,69.2866511 391.720944,72.396 C387.374922,75.5053489 381.315316,77.06 373.541944,77.06 Z" id="Todos" fill="#25D06F" fill-rule="nonzero"></path>
                <g id="Todos-Icon" transform="translate(0.000000, 1.000000)" fill="#10506E" stroke="#0A374B" stroke-width="5">
                    <rect id="Rectangle" x="2.5" y="2.5" width="93" height="18" rx="8"></rect>
                    <rect id="Rectangle-Copy-2" x="2.5" y="29.5" width="93" height="18" rx="8"></rect>
                    <rect id="Rectangle-Copy-3" x="2.5" y="55.5" width="93" height="18" rx="8"></rect>
                </g>
            </g>
        </g>
    </g>
</svg>