<?xml version="1.0" encoding="UTF-8"?>
<svg width="46px" height="52px" viewBox="0 0 46 52" version="1.1" xmlns="http://www.w3.org/2000/svg" xmlns:xlink="http://www.w3.org/1999/xlink">
    <!-- Generator: Sketch 55.2 (78181) - https://sketchapp.com -->
    <title>Group</title>
    <desc>Created with Sketch.</desc>
    <g id="Page-1" stroke="none" stroke-width="1" fill="none" fill-rule="evenodd">
        <g id="Desktop" transform="translate(-869.000000, -408.000000)" fill="#FFFFFF" fill-rule="nonzero">
            <g id="Group" transform="translate(869.000000, 408.000000)">
                <path d="M3.28571429,47.1250033 C3.28571429,49.8173897 5.49231088,52 8.21428571,52 L37.7857143,52 C40.5076891,52 42.7142857,49.8173897 42.7142857,47.1250033 L42.7142857,13.0000267 L3.28571429,13.0000267 L3.28571429,47.1250033 Z M31.2142857,21.1250212 C31.2142857,20.227559 31.9498179,19.5000223 32.8571429,19.5000223 C33.7644678,19.5000223 34.5,20.227559 34.5,21.1250212 L34.5,43.8750056 C34.5,44.7724677 33.7644678,45.5000045 32.8571429,45.5000045 C31.9498179,45.5000045 31.2142857,44.7724677 31.2142857,43.8750056 L31.2142857,21.1250212 Z M21.3571429,21.1250212 C21.3571429,20.227559 22.0926751,19.5000223 23,19.5000223 C23.9073249,19.5000223 24.6428571,20.227559 24.6428571,21.1250212 L24.6428571,43.8750056 C24.6428571,44.7724677 23.9073249,45.5000045 23,45.5000045 C22.0926751,45.5000045 21.3571429,44.7724677 21.3571429,43.8750056 L21.3571429,21.1250212 Z M11.5,21.1250212 C11.5,20.227559 12.2355322,19.5000223 13.1428571,19.5000223 C14.0501821,19.5000223 14.7857143,20.227559 14.7857143,21.1250212 L14.7857143,43.8750056 C14.7857143,44.7724677 14.0501821,45.5000045 13.1428571,45.5000045 C12.2355322,45.5000045 11.5,44.7724677 11.5,43.8750056 L11.5,21.1250212 Z M44.3571429,3.2500334 L32.0357143,3.2500334 L31.0705357,1.35081595 C30.6534993,0.522617735 29.7983554,-0.0006279698 28.8629464,1.77229668e-05 L17.1267857,1.77229668e-05 C16.193136,-0.00351449361 15.339605,0.521184751 14.9294643,1.35081595 L13.9642857,3.2500334 L1.64285714,3.2500334 C0.735532197,3.2500334 0,3.97757018 0,4.87503229 L0,8.12503006 C0,9.02249216 0.735532197,9.75002895 1.64285714,9.75002895 L44.3571429,9.75002895 C45.2644678,9.75002895 46,9.02249216 46,8.12503006 L46,4.87503229 C46,3.97757018 45.2644678,3.2500334 44.3571429,3.2500334 Z" id="Shape"></path>
            </g>
        </g>
    </g>
</svg>